<svg xmlns="http://www.w3.org/2000/svg" width="334.1710205078125" height="162.0364227294922" viewBox="-23.737773895263672 27.658611297607422 334.1710205078125 162.0364227294922"><title>Neo4j Graph Visualization</title><desc>Created using Neo4j (http://www.neo4j.com/)</desc><g class="layer relationships"><g class="relationship" transform="translate(5.262225541770766 105.30065571167322) rotate(391.6726680109983)"><path class="outline" fill="#A5ABB6" stroke="none" d="M 21.40063509461097,12.933012701892217 L 21.90063509461097,12.06698729810778 A 57.91664810624451 57.91664810624451 0 0 0 22.574769733895153,12.45020483823803 L 22.08640947240432,13.322846949871781 A 58.91664810624451 58.91664810624451 0 0 1 21.40063509461097,12.933012701892217 Z M 76.35216319023758,15.025308228203386 L 75.9194636925246,14.123770017876758 A 57.91664810624451 57.91664810624451 0 0 0 76.61629407814969,13.78356330333995 L 75.28210076210179,11.096570896314368 L 83.1083085805507,11.11827763373246 L 78.39521849954689,17.366219846040725 L 77.06102518349898,14.679227439015143 A 58.91664810624451 58.91664810624451 0 0 1 76.35216319023758,15.025308228203386"/><text text-anchor="middle" pointer-events="none" font-size="8px" fill="#000000" x="49.02717449279314" y="23.29761992654489" font-family="sans-serif">PublicTrans…</text></g><g class="relationship" transform="translate(95.04915786823146 160.69504360064767) rotate(310.59020940836496)"><path class="outline" fill="#A5ABB6" stroke="none" d="M 25 0.5 L 41.018856694138684 0.5 L 41.018856694138684 -0.5 L 25 -0.5 Z M 60.354794194138684 0.5 L 76.37365088827737 0.5 L 76.37365088827737 3.5 L 83.37365088827737 0 L 76.37365088827737 -3.5 L 76.37365088827737 -0.5 L 60.354794194138684 -0.5 Z"/><text text-anchor="middle" pointer-events="none" font-size="8px" fill="#000000" x="50.686825444138684" y="3" font-family="sans-serif">trek</text></g><g class="relationship" transform="translate(165.56187396593447 78.39798973248689) rotate(349.3738998530948)"><path class="outline" fill="#A5ABB6" stroke="none" d="M 25 0.5 L 45.778571684790705 0.5 L 45.778571684790705 -0.5 L 25 -0.5 Z M 65.1145091847907 0.5 L 85.89308086958141 0.5 L 85.89308086958141 3.5 L 92.89308086958141 0 L 85.89308086958141 -3.5 L 85.89308086958141 -0.5 L 65.1145091847907 -0.5 Z"/><text text-anchor="middle" pointer-events="none" font-size="8px" fill="#000000" x="55.446540434790705" y="3" font-family="sans-serif">trek</text></g><g class="relationship" transform="translate(5.262225541770766 105.30065571167322) rotate(391.6726680109983)"><path class="outline" fill="#A5ABB6" stroke="none" d="M 25 0.5 L 39.58198723621527 0.5 L 39.58198723621527 -0.5 L 25 -0.5 Z M 58.91792473621527 0.5 L 73.49991197243054 0.5 L 73.49991197243054 3.5 L 80.49991197243054 0 L 73.49991197243054 -3.5 L 73.49991197243054 -0.5 L 58.91792473621527 -0.5 Z"/><text text-anchor="middle" pointer-events="none" font-size="8px" fill="#000000" x="49.24995598621527" y="3" font-family="sans-serif">trek</text></g><g class="relationship" transform="translate(5.262225541770766 105.30065571167322) rotate(391.6726680109983)"><path class="outline" fill="#A5ABB6" stroke="none" d="M 21.40063509461097,-12.933012701892217 L 21.90063509461097,-12.06698729810778 A 57.91664810624451 57.91664810624451 0 0 1 38.23310420720787,-18.433374438219793 L 38.01510376427195,-19.409323108427273 A 58.91664810624451 58.91664810624451 0 0 0 21.40063509461097,-12.933012701892217 Z M 60.073271076821754,-20.10134658820499 L 59.916875351245636,-19.11365211266029 A 57.91664810624451 57.91664810624451 0 0 1 76.61629407814969,-13.78356330333995 L 75.28210076210179,-11.096570896314368 L 83.1083085805507,-11.11827763373246 L 78.39521849954689,-17.366219846040725 L 77.06102518349898,-14.679227439015143 A 58.91664810624451 58.91664810624451 0 0 0 60.073271076821754,-20.10134658820499"/><text text-anchor="middle" pointer-events="none" font-size="8px" fill="#000000" x="49.02717449279315" y="-17.29761992654489" font-family="sans-serif">road</text></g></g><g class="layer nodes"><g class="node" transform="translate(5.262225541770766,105.30065571167322)"><circle class="outline" cx="0" cy="0" r="25" fill="#F16667" stroke="#eb2728" stroke-width="2px"/><text text-anchor="middle" pointer-events="none" font-family="sans-serif" dy="1.5625" font-size="25" fill="#FFFFFF"/><text text-anchor="middle" pointer-events="none" x="0" y="5" font-size="10px" fill="#FFFFFF" font-family="sans-serif"> Darjeeling</text></g><g class="node" transform="translate(281.43325958094766,56.658612727186664)"><circle class="outline" cx="0" cy="0" r="25" fill="#8DCC93" stroke="#5db665" stroke-width="2px"/><text text-anchor="middle" pointer-events="none" font-family="sans-serif" dy="1.5625" font-size="25" fill="#2A2C34"/><text text-anchor="middle" pointer-events="none" x="0" y="5" font-size="10px" fill="#2A2C34" font-family="sans-serif"> Sandak…</text></g><g class="node" transform="translate(95.04915786823146,160.69504360064767)"><circle class="outline" cx="0" cy="0" r="25" fill="#F16667" stroke="#eb2728" stroke-width="2px"/><text text-anchor="middle" pointer-events="none" font-family="sans-serif" dy="1.5625" font-size="25" fill="#FFFFFF"/><text text-anchor="middle" pointer-events="none" x="0" y="5" font-size="10px" fill="#FFFFFF" font-family="sans-serif"> Rimbik</text></g><g class="node" transform="translate(165.56187396593447,78.39798973248689)"><circle class="outline" cx="0" cy="0" r="25" fill="#D9C8AE" stroke="#c0a378" stroke-width="2px"/><text text-anchor="middle" pointer-events="none" font-family="sans-serif" dy="1.5625" font-size="25" fill="#2A2C34"/><text text-anchor="middle" pointer-events="none" x="0" y="5" font-size="10px" fill="#2A2C34" font-family="sans-serif"> BhikeBh…</text></g></g></svg>