<svg xmlns="http://www.w3.org/2000/svg" width="244.6002960205078" height="240.1237030029297" viewBox="-19.286697387695312 -25.860393524169922 244.6002960205078 240.1237030029297"><title>Neo4j Graph Visualization</title><desc>Created using Neo4j (http://www.neo4j.com/)</desc><g class="layer relationships"><g class="relationship" transform="translate(42.510542936176876 3.1396060680284106) rotate(468.0077422317366)"><path class="outline" fill="#A5ABB6" stroke="none" d="M 21.40063509461097,12.933012701892217 L 21.90063509461097,12.06698729810778 A 58.52775243246398 58.52775243246398 0 0 0 22.843873206841497,12.599987188770918 L 22.35998928977701,13.475119381531712 A 59.52775243246398 59.52775243246398 0 0 1 21.40063509461097,12.933012701892217 Z M 76.66464681652734,15.169837551713066 L 76.23627291588973,14.266235979529547 A 58.52775243246398 58.52775243246398 0 0 0 77.21091047879332,13.793088390728343 L 75.87583106336528,11.106536147703778 L 83.70204561508865,11.125661795233675 L 78.9910163660307,17.37515804809443 L 77.65593695060267,14.688605805069866 A 59.52775243246398 59.52775243246398 0 0 1 76.66464681652734,15.169837551713066"/><text text-anchor="middle" pointer-events="none" font-size="8px" fill="#000000" x="49.32329304825841" y="23.379496285490525" transform="rotate(180 49.32329304825841 20.379496285490525)" font-family="sans-serif">PublicTrans…</text></g><g class="relationship" transform="translate(9.713302152208417 104.03274290073307) rotate(395.44903375020294)"><path class="outline" fill="#A5ABB6" stroke="none" d="M 25 0.5 L 38.84695940701134 0.5 L 38.84695940701134 -0.5 L 25 -0.5 Z M 58.18289690701134 0.5 L 72.02985631402268 0.5 L 72.02985631402268 3.5 L 79.02985631402268 0 L 72.02985631402268 -3.5 L 72.02985631402268 -0.5 L 58.18289690701134 -0.5 Z"/><text text-anchor="middle" pointer-events="none" font-size="8px" fill="#000000" x="48.51492815701134" y="3" font-family="sans-serif">trek</text></g><g class="relationship" transform="translate(94.45932587055287 164.36782779042227) rotate(371.5934170901684)"><path class="outline" fill="#A5ABB6" stroke="none" d="M 25 0.5 L 38.81980108820683 0.5 L 38.81980108820683 -0.5 L 25 -0.5 Z M 58.15573858820683 0.5 L 71.97553967641366 0.5 L 71.97553967641366 3.5 L 78.97553967641366 0 L 71.97553967641366 -3.5 L 71.97553967641366 -0.5 L 58.15573858820683 -0.5 Z"/><text text-anchor="middle" pointer-events="none" font-size="8px" fill="#000000" x="48.48776983820683" y="3" font-family="sans-serif">trek</text></g><g class="relationship" transform="translate(42.510542936176876 3.1396060680284106) rotate(468.0077422317366)"><path class="outline" fill="#A5ABB6" stroke="none" d="M 25 0.5 L 39.87702173681334 0.5 L 39.87702173681334 -0.5 L 25 -0.5 Z M 59.21295923681334 0.5 L 74.08998097362668 0.5 L 74.08998097362668 3.5 L 81.08998097362668 0 L 74.08998097362668 -3.5 L 74.08998097362668 -0.5 L 59.21295923681334 -0.5 Z"/><text text-anchor="middle" pointer-events="none" font-size="8px" fill="#000000" x="49.54499048681334" y="3" transform="rotate(180 49.54499048681334 0)" font-family="sans-serif">trek</text></g><g class="relationship" transform="translate(42.510542936176876 3.1396060680284106) rotate(468.0077422317366)"><path class="outline" fill="#A5ABB6" stroke="none" d="M 21.40063509461097,-12.933012701892217 L 21.90063509461097,-12.06698729810778 A 58.52775243246398 58.52775243246398 0 0 1 38.52629577955689,-18.527411778984536 L 38.310360347116195,-19.50381942388325 A 59.52775243246398 59.52775243246398 0 0 0 21.40063509461097,-12.933012701892217 Z M 60.36939768496025,-20.192229094356513 L 60.214765836822515,-19.20425693303742 A 58.52775243246398 58.52775243246398 0 0 1 77.21091047879332,-13.793088390728343 L 75.87583106336528,-11.106536147703778 L 83.70204561508865,-11.125661795233675 L 78.9910163660307,-17.37515804809443 L 77.65593695060267,-14.688605805069866 A 59.52775243246398 59.52775243246398 0 0 0 60.36939768496025,-20.192229094356513"/><text text-anchor="middle" pointer-events="none" font-size="8px" fill="#000000" x="49.32329304825839" y="-17.379496285490525" transform="rotate(180 49.32329304825839 -20.379496285490525)" font-family="sans-serif">road</text></g></g><g class="layer nodes"><g class="node" transform="translate(42.510542936176876,3.1396060680284106)"><circle class="outline" cx="0" cy="0" r="25" fill="#F16667" stroke="#eb2728" stroke-width="2px"/><text text-anchor="middle" pointer-events="none" font-family="sans-serif" dy="1.5625" font-size="25" fill="#FFFFFF"/><text text-anchor="middle" pointer-events="none" x="0" y="5" font-size="10px" fill="#FFFFFF" font-family="sans-serif"> Darjeeling</text></g><g class="node" transform="translate(196.313592527725,185.263310908339)"><circle class="outline" cx="0" cy="0" r="25" fill="#8DCC93" stroke="#5db665" stroke-width="2px"/><text text-anchor="middle" pointer-events="none" font-family="sans-serif" dy="1.5625" font-size="25" fill="#2A2C34"/><text text-anchor="middle" pointer-events="none" x="0" y="5" font-size="10px" fill="#2A2C34" font-family="sans-serif"> Sandak…</text></g><g class="node" transform="translate(9.713302152208417,104.03274290073307)"><circle class="outline" cx="0" cy="0" r="25" fill="#F16667" stroke="#eb2728" stroke-width="2px"/><text text-anchor="middle" pointer-events="none" font-family="sans-serif" dy="1.5625" font-size="25" fill="#FFFFFF"/><text text-anchor="middle" pointer-events="none" x="0" y="5" font-size="10px" fill="#FFFFFF" font-family="sans-serif"> Rimbik</text></g><g class="node" transform="translate(94.45932587055287,164.36782779042227)"><circle class="outline" cx="0" cy="0" r="25" fill="#D9C8AE" stroke="#c0a378" stroke-width="2px"/><text text-anchor="middle" pointer-events="none" font-family="sans-serif" dy="1.5625" font-size="25" fill="#2A2C34"/><text text-anchor="middle" pointer-events="none" x="0" y="5" font-size="10px" fill="#2A2C34" font-family="sans-serif"> BhikeBh…</text></g></g></svg>