<svg xmlns="http://www.w3.org/2000/svg" width="197.3563232421875" height="215.7499542236328" viewBox="-25.200700759887695 -21.890422821044922 197.3563232421875 215.7499542236328"><title>Neo4j Graph Visualization</title><desc>Created using Neo4j (http://www.neo4j.com/)</desc><g class="layer relationships"><g class="relationship" transform="translate(69.96444597845904 164.85952439878935) rotate(252.93797036707133)"><path class="outline" fill="#A5ABB6" stroke="none" d="M 5.987513214418485,24.277555179777966 L 6.953439040707552,24.018736134675446 A 45.890142893278686 45.890142893278686 0 0 0 21.480706202175575,47.04009593821308 L 20.831346554275893,47.800577396027535 A 46.890142893278686 46.890142893278686 0 0 1 5.987513214418485,24.277555179777966 Z M 77.04882017377435,51.31608871051165 L 76.49926102657784,50.48063389800972 A 45.890142893278686 45.890142893278686 0 0 0 93.78137882991864,29.448446598157616 L 91.00290858008712,28.317030197887032 L 96.8844288055219,23.153918748595864 L 97.48600582969398,30.957001798518395 L 94.70753557986247,29.82558539824781 A 46.890142893278686 46.890142893278686 0 0 1 77.04882017377435,51.31608871051165"/><text text-anchor="middle" pointer-events="none" font-size="8px" fill="#000000" x="48.38460114759344" y="61.44119647051649" transform="rotate(180 48.38460114759344 58.44119647051649)" font-family="sans-serif">CONNECTION</text></g><g class="relationship" transform="translate(38.771513319957265 63.22570421537423) rotate(349.0607320422703)"><path class="outline" fill="#A5ABB6" stroke="none" d="M 5.987513214418485,-24.277555179777966 L 6.953439040707552,-24.018736134675446 A 45.89179665619872 45.89179665619872 0 0 1 21.482093340337585,-47.041662971798324 L 20.832752510893865,-47.802160497906954 A 46.89179665619872 46.89179665619872 0 0 0 5.987513214418485,-24.277555179777966 Z M 77.0504962924283,-51.317588376029725 L 76.50095484841785,-50.48212191870489 A 45.89179665619872 45.89179665619872 0 0 1 93.78456942201457,-29.448491153261173 L 91.00609514949743,-28.317084631731284 L 96.8875970176705,-23.15395227097617 L 97.48920178537075,-30.957033181967695 L 94.71072751285361,-29.825626660437806 A 46.89179665619872 46.89179665619872 0 0 0 77.0504962924283,-51.317588376029725"/><text text-anchor="middle" pointer-events="none" font-size="8px" fill="#000000" x="48.386177656141115" y="-55.44242413120445" font-family="sans-serif">CONNECTION</text></g><g class="relationship" transform="translate(69.96444597845904 164.85952439878935) rotate(252.93797036707133)"><path class="outline" fill="#A5ABB6" stroke="none" d="M 17.324116139070416,18.03122292025696 L 18.031222920256962,17.324116139070412 A 47.02074877201994 47.02074877201994 0 0 0 21.954877237558062,20.83128357569531 L 21.33121562514849,21.612978012931947 A 48.02074877201994 48.02074877201994 0 0 1 17.324116139070416,18.03122292025696 Z M 77.77702874203256,24.124086007599637 L 77.22524402009064,23.290099424595155 A 47.02074877201994 47.02074877201994 0 0 0 81.44482916945964,20.14520073029325 L 79.52025863046464,17.843890616372814 L 87.1353145251065,16.038087824958318 L 84.01092322145297,23.213614215520497 L 82.08635268245797,20.91230410160006 A 48.02074877201994 48.02074877201994 0 0 1 77.77702874203256,24.124086007599637"/><text text-anchor="middle" pointer-events="none" font-size="8px" fill="#000000" x="49.167943931635186" y="34.549220171015556" transform="rotate(180 49.167943931635186 31.549220171015556)" font-family="sans-serif">CONNECTION</text></g><g class="relationship" transform="translate(69.96444597845904 164.85952439878935) rotate(252.93797036707133)"><path class="outline" fill="#A5ABB6" stroke="none" d="M 24.018736134675446,6.953439040707552 L 24.277555179777966,5.987513214418485 A 104.32910005887486 104.32910005887486 0 0 0 25.655414987752124,6.346650130279073 L 25.40980280254964,7.316018303100975 A 105.32910005887486 105.32910005887486 0 0 1 24.018736134675446,6.953439040707552 Z M 73.86570544199466,8.092402604053774 L 73.6512747462425,7.115663397960745 A 104.32910005887486 104.32910005887486 0 0 0 75.03993286961585,6.800852992869859 L 74.3567096953686,3.8796877982648854 L 81.969855519402,5.693526452060432 L 75.95089710194553,10.695739919009823 L 75.26767392769827,7.774574724404849 A 105.32910005887486 105.32910005887486 0 0 1 73.86570544199466,8.092402604053774"/><text text-anchor="middle" pointer-events="none" font-size="8px" fill="#000000" x="49.60050539627103" y="13.028987807187562" transform="rotate(180 49.60050539627103 10.028987807187562)" font-family="sans-serif">CONNEC…</text></g><g class="relationship" transform="translate(38.771513319957265 63.22570421537423) rotate(349.0607320422703)"><path class="outline" fill="#A5ABB6" stroke="none" d="M 10.396609043987748,-22.74116356711926 L 11.29757791189017,-22.307279828001697 A 44.37881724696445 44.37881724696445 0 0 1 21.89901453663692,-36.31084116024575 L 21.236930733330762,-37.06027096843305 A 45.37881724696445 45.37881724696445 0 0 0 10.396609043987748,-22.74116356711926 Z M 77.21713775955179,-40.288846449452116 L 76.6456017723385,-39.46826944799514 A 44.37881724696445 44.37881724696445 0 0 1 88.78666081400628,-26.77634785033394 L 86.25131946232781,-25.17258844491517 L 92.95132298526316,-21.12784459732063 L 92.16711594957758,-28.914693724225636 L 89.63177459789911,-27.310934318806865 A 45.37881724696445 45.37881724696445 0 0 0 77.21713775955179,-40.288846449452116"/><text text-anchor="middle" pointer-events="none" font-size="8px" fill="#000000" x="48.69748533823968" y="-44.856396855801606" font-family="sans-serif">CONNECTION</text></g><g class="relationship" transform="translate(38.771513319957265 63.22570421537423) rotate(349.0607320422703)"><path class="outline" fill="#A5ABB6" stroke="none" d="M 14.44320574945421,-20.411854586953456 L 15.247803529220876,-19.818034401379958 A 44.78474589746553 44.78474589746553 0 0 1 22.056885979402406,-27.15910377289307 L 21.404328415868534,-27.916842927401227 A 45.78474589746553 45.78474589746553 0 0 0 14.44320574945421,-20.411854586953456 Z M 77.47548494662242,-30.775495083647506 L 76.9033735635092,-29.955319148062785 A 44.78474589746553 44.78474589746553 0 0 1 84.42374386106486,-23.344802230424598 L 82.20364195686687,-21.327093744300686 L 89.50174731272033,-18.500849201649935 L 87.38387973332885,-26.035080211923148 L 85.16377782913086,-24.017371725799237 A 45.78474589746553 45.78474589746553 0 0 0 77.47548494662242,-30.775495083647506"/><text text-anchor="middle" pointer-events="none" font-size="8px" fill="#000000" x="48.975772139585594" y="-35.44995607520203" font-family="sans-serif">CONNECTION</text></g><g class="relationship" transform="translate(38.771513319957265 63.22570421537423) rotate(349.0607320422703)"><path class="outline" fill="#A5ABB6" stroke="none" d="M 17.9862104268602,-17.370844380187897 L 18.666383164631117,-16.637792508358068 A 47.951241897745156 47.951241897745156 0 0 1 21.89781951233165,-19.380583838647546 L 21.28503681952748,-20.170835299512802 A 48.951241897745156 48.951241897745156 0 0 0 17.9862104268602,-17.370844380187897 Z M 77.86944333234455,-22.588211757268347 L 77.32629199121722,-21.748576943416758 A 47.951241897745156 47.951241897745156 0 0 1 80.77988014085375,-19.29138056472795 L 78.93435737683302,-16.92620705576898 L 86.60620545576147,-15.379356366839417 L 83.24057715954805,-22.444945243339912 L 81.39505439552732,-20.07977173438094 A 48.951241897745156 48.951241897745156 0 0 0 77.86944333234455,-22.588211757268347"/><text text-anchor="middle" pointer-events="none" font-size="8px" fill="#000000" x="49.213482359703775" y="-26.89413217423204" font-family="sans-serif">CONNECTION</text></g><g class="relationship" transform="translate(38.771513319957265 63.22570421537423) rotate(349.0607320422703)"><path class="outline" fill="#A5ABB6" stroke="none" d="M 20.90208894244944,-13.724164012497553 L 21.434121018964774,-12.87743981326927 A 56.10073329086372 56.10073329086372 0 0 1 23.119697183441193,-13.895737036685361 L 22.617710635132006,-14.76061246431447 A 57.10073329086372 57.10073329086372 0 0 0 20.90208894244944,-13.724164012497553 Z M 76.60868132473533,-16.55203287220212 L 76.16512886543526,-15.655784460293418 A 56.10073329086372 56.10073329086372 0 0 1 77.91449766017226,-14.751458710649873 L 76.49029237164137,-12.111072508572482 L 84.31276634644132,-11.868377404424043 L 79.81343804488012,-18.271973646753057 L 78.38923275634923,-15.631587444675668 A 57.10073329086372 57.10073329086372 0 0 0 76.60868132473533,-16.55203287220212"/><text text-anchor="middle" pointer-events="none" font-size="8px" fill="#000000" x="49.4045312254707" y="-18.94519410935542" font-family="sans-serif">CONNECTI…</text></g><g class="relationship" transform="translate(38.771513319957265 63.22570421537423) rotate(432.93797036707133)"><path class="outline" fill="#A5ABB6" stroke="none" d="M 24.018736134675446,6.953439040707552 L 24.277555179777966,5.987513214418485 A 104.32910005887486 104.32910005887486 0 0 0 25.655414987752124,6.346650130279073 L 25.40980280254964,7.316018303100975 A 105.32910005887486 105.32910005887486 0 0 1 24.018736134675446,6.953439040707552 Z M 73.86570544199466,8.092402604053774 L 73.6512747462425,7.115663397960745 A 104.32910005887486 104.32910005887486 0 0 0 75.03993286961585,6.800852992869859 L 74.3567096953686,3.8796877982648854 L 81.969855519402,5.693526452060432 L 75.95089710194553,10.695739919009823 L 75.26767392769827,7.774574724404849 A 105.32910005887486 105.32910005887486 0 0 1 73.86570544199466,8.092402604053774"/><text text-anchor="middle" pointer-events="none" font-size="8px" fill="#000000" x="49.60050539627103" y="13.028987807187562" font-family="sans-serif">CONNEC…</text></g><g class="relationship" transform="translate(38.771513319957265 63.22570421537423) rotate(349.0607320422703)"><path class="outline" fill="#A5ABB6" stroke="none" d="M 23.08917320392191,-9.598962483481976 L 23.454514228288303,-8.668088734837774 A 76.1671823352104 76.1671823352104 0 0 1 23.60135738608104,-8.72554508583275 L 23.237944267582904,-9.657173179711123 A 77.1671823352104 77.1671823352104 0 0 0 23.08917320392191,-9.598962483481976 Z M 76.03906705700214,-10.853932904036029 L 75.71823693645013,-9.906796148468715 A 76.1671823352104 76.1671823352104 0 0 1 75.86753250632725,-9.856051906674548 L 74.89916183380892,-7.016640305548989 L 82.65422135437326,-8.069755604319383 L 77.15869340301835,-13.641934041508627 L 76.19032273050001,-10.802522440383068 A 77.1671823352104 77.1671823352104 0 0 0 76.03906705700214,-10.853932904036029"/><text text-anchor="middle" pointer-events="none" font-size="8px" fill="#000000" x="49.54426278629973" y="-11.41355532602509" font-family="sans-serif">CONNECT…</text></g><g class="relationship" transform="translate(38.771513319957265 63.22570421537423) rotate(349.0607320422703)"><path class="outline" fill="#A5ABB6" stroke="none" d="M 24.471206027250748,-5.139073415689509 L 24.657117634413662,-4.15650694245622 A 143.2099556214981 143.2099556214981 0 0 1 25.52667836562046,-4.318256947779247 L 25.346838687796765,-5.301952881632928 A 144.2099556214981 144.2099556214981 0 0 0 24.471206027250748,-5.139073415689509 Z M 73.94788258051918,-5.860714964357385 L 73.79070638670441,-4.873144387589377 A 143.2099556214981 143.2099556214981 0 0 1 74.66375603351497,-4.731429026097207 L 74.17393857732685,-1.7716859866403372 L 81.65145936827902,-4.081812134901057 L 75.31684597509914,-8.677753078706369 L 74.82702851891102,-5.718010039249498 A 144.2099556214981 144.2099556214981 0 0 0 73.94788258051918,-5.860714964357385"/><text text-anchor="middle" pointer-events="none" font-size="8px" fill="#000000" x="49.62939864898851" y="-4.143664755046245" font-family="sans-serif">CONNEC…</text></g><g class="relationship" transform="translate(38.771513319957265 63.22570421537423) rotate(349.0607320422703)"><path class="outline" fill="#A5ABB6" stroke="none" d="M 25 0.5 L 25.324007973543132 0.5 L 25.324007973543132 -0.5 L 25 -0.5 Z M 73.99197672354313 0.5 L 74.31598469708626 0.5 L 74.31598469708626 3.5 L 81.31598469708626 0 L 74.31598469708626 -3.5 L 74.31598469708626 -0.5 L 73.99197672354313 -0.5 Z"/><text text-anchor="middle" pointer-events="none" font-size="8px" fill="#000000" x="49.65799234854313" y="3" font-family="sans-serif">CONNEC…</text></g><g class="relationship" transform="translate(38.771513319957265 63.22570421537423) rotate(432.93797036707133)"><path class="outline" fill="#A5ABB6" stroke="none" d="M 17.324116139070416,18.03122292025696 L 18.031222920256962,17.324116139070412 A 47.02074877201994 47.02074877201994 0 0 0 21.954877237558062,20.83128357569531 L 21.33121562514849,21.612978012931947 A 48.02074877201994 48.02074877201994 0 0 1 17.324116139070416,18.03122292025696 Z M 77.77702874203256,24.124086007599637 L 77.22524402009064,23.290099424595155 A 47.02074877201994 47.02074877201994 0 0 0 81.44482916945964,20.14520073029325 L 79.52025863046464,17.843890616372814 L 87.1353145251065,16.038087824958318 L 84.01092322145297,23.213614215520497 L 82.08635268245797,20.91230410160006 A 48.02074877201994 48.02074877201994 0 0 1 77.77702874203256,24.124086007599637"/><text text-anchor="middle" pointer-events="none" font-size="8px" fill="#000000" x="49.167943931635186" y="34.549220171015556" font-family="sans-serif">CONNECTION</text></g><g class="relationship" transform="translate(38.771513319957265 63.22570421537423) rotate(349.0607320422703)"><path class="outline" fill="#A5ABB6" stroke="none" d="M 24.471206027250748,5.139073415689509 L 24.657117634413662,4.15650694245622 A 143.2099556214981 143.2099556214981 0 0 0 25.52667836562047,4.318256947779247 L 25.346838687796776,5.301952881632957 A 144.2099556214981 144.2099556214981 0 0 1 24.471206027250748,5.139073415689509 Z M 73.94788258051919,5.860714964357385 L 73.79070638670443,4.873144387589377 A 143.2099556214981 143.2099556214981 0 0 0 74.66375603351497,4.731429026097207 L 74.17393857732685,1.7716859866403372 L 81.65145936827902,4.081812134901057 L 75.31684597509914,8.677753078706369 L 74.82702851891102,5.718010039249498 A 144.2099556214981 144.2099556214981 0 0 1 73.94788258051919,5.860714964357385"/><text text-anchor="middle" pointer-events="none" font-size="8px" fill="#000000" x="49.62939864898853" y="10.143664755046245" font-family="sans-serif">CONNEC…</text></g><g class="relationship" transform="translate(38.771513319957265 63.22570421537423) rotate(349.0607320422703)"><path class="outline" fill="#A5ABB6" stroke="none" d="M 23.08917320392191,9.598962483481976 L 23.454514228288303,8.668088734837774 A 76.1671823352104 76.1671823352104 0 0 0 23.60135738608104,8.725545085832763 L 23.237944267582904,9.657173179711137 A 77.1671823352104 77.1671823352104 0 0 1 23.08917320392191,9.598962483481976 Z M 76.03906705700217,10.853932904036029 L 75.71823693645014,9.906796148468715 A 76.1671823352104 76.1671823352104 0 0 0 75.86753250632725,9.856051906674548 L 74.89916183380892,7.016640305548989 L 82.65422135437326,8.069755604319383 L 77.15869340301835,13.641934041508627 L 76.19032273050001,10.802522440383068 A 77.1671823352104 77.1671823352104 0 0 1 76.03906705700217,10.853932904036029"/><text text-anchor="middle" pointer-events="none" font-size="8px" fill="#000000" x="49.54426278629974" y="17.41355532602509" font-family="sans-serif">CONNECT…</text></g><g class="relationship" transform="translate(38.771513319957265 63.22570421537423) rotate(349.0607320422703)"><path class="outline" fill="#A5ABB6" stroke="none" d="M 20.90208894244944,13.724164012497553 L 21.434121018964774,12.87743981326927 A 56.10073329086372 56.10073329086372 0 0 0 23.119697183441193,13.895737036685361 L 22.617710635132006,14.76061246431447 A 57.10073329086372 57.10073329086372 0 0 1 20.90208894244944,13.724164012497553 Z M 76.60868132473534,16.552032872202112 L 76.16512886543529,15.655784460293411 A 56.10073329086372 56.10073329086372 0 0 0 77.91449766017226,14.751458710649873 L 76.49029237164137,12.111072508572482 L 84.31276634644132,11.868377404424043 L 79.81343804488012,18.271973646753057 L 78.38923275634923,15.631587444675668 A 57.10073329086372 57.10073329086372 0 0 1 76.60868132473534,16.552032872202112"/><text text-anchor="middle" pointer-events="none" font-size="8px" fill="#000000" x="49.40453122547071" y="24.94519410935542" font-family="sans-serif">CONNECTI…</text></g><g class="relationship" transform="translate(38.771513319957265 63.22570421537423) rotate(349.0607320422703)"><path class="outline" fill="#A5ABB6" stroke="none" d="M 17.9862104268602,17.370844380187897 L 18.666383164631117,16.637792508358068 A 47.951241897745156 47.951241897745156 0 0 0 21.897819512331655,19.380583838647553 L 21.285036819527487,20.17083529951281 A 48.951241897745156 48.951241897745156 0 0 1 17.9862104268602,17.370844380187897 Z M 77.86944333234456,22.588211757268333 L 77.32629199121723,21.74857694341675 A 47.951241897745156 47.951241897745156 0 0 0 80.77988014085375,19.29138056472795 L 78.93435737683302,16.92620705576898 L 86.60620545576147,15.379356366839417 L 83.24057715954805,22.444945243339912 L 81.39505439552732,20.07977173438094 A 48.951241897745156 48.951241897745156 0 0 1 77.86944333234456,22.588211757268333"/><text text-anchor="middle" pointer-events="none" font-size="8px" fill="#000000" x="49.21348235970378" y="32.89413217423204" font-family="sans-serif">CONNECTION</text></g><g class="relationship" transform="translate(38.771513319957265 63.22570421537423) rotate(349.0607320422703)"><path class="outline" fill="#A5ABB6" stroke="none" d="M 14.44320574945421,20.411854586953456 L 15.247803529220876,19.818034401379958 A 44.78474589746553 44.78474589746553 0 0 0 22.056885979402402,27.15910377289307 L 21.40432841586853,27.916842927401227 A 45.78474589746553 45.78474589746553 0 0 1 14.44320574945421,20.411854586953456 Z M 77.47548494662242,30.775495083647506 L 76.90337356350919,29.955319148062785 A 44.78474589746553 44.78474589746553 0 0 0 84.42374386106486,23.344802230424598 L 82.20364195686687,21.327093744300686 L 89.50174731272033,18.500849201649935 L 87.38387973332885,26.035080211923148 L 85.16377782913086,24.017371725799237 A 45.78474589746553 45.78474589746553 0 0 1 77.47548494662242,30.775495083647506"/><text text-anchor="middle" pointer-events="none" font-size="8px" fill="#000000" x="48.97577213958559" y="41.44995607520203" font-family="sans-serif">CONNECTION</text></g><g class="relationship" transform="translate(38.771513319957265 63.22570421537423) rotate(349.0607320422703)"><path class="outline" fill="#A5ABB6" stroke="none" d="M 10.396609043987748,22.74116356711926 L 11.29757791189017,22.307279828001697 A 44.37881724696445 44.37881724696445 0 0 0 21.89901453663691,36.310841160245744 L 21.23693073333075,37.06027096843304 A 45.37881724696445 45.37881724696445 0 0 1 10.396609043987748,22.74116356711926 Z M 77.21713775955178,40.288846449452116 L 76.64560177233848,39.46826944799514 A 44.37881724696445 44.37881724696445 0 0 0 88.78666081400628,26.77634785033394 L 86.25131946232781,25.17258844491517 L 92.95132298526316,21.12784459732063 L 92.16711594957758,28.914693724225636 L 89.63177459789911,27.310934318806865 A 45.37881724696445 45.37881724696445 0 0 1 77.21713775955178,40.288846449452116"/><text text-anchor="middle" pointer-events="none" font-size="8px" fill="#000000" x="48.69748533823967" y="50.856396855801606" font-family="sans-serif">CONNECTION</text></g><g class="relationship" transform="translate(38.771513319957265 63.22570421537423) rotate(349.0607320422703)"><path class="outline" fill="#A5ABB6" stroke="none" d="M 5.987513214418485,24.277555179777966 L 6.953439040707552,24.018736134675446 A 45.89179665619872 45.89179665619872 0 0 0 21.482093340337602,47.04166297179834 L 20.832752510893883,47.80216049790697 A 46.89179665619872 46.89179665619872 0 0 1 5.987513214418485,24.277555179777966 Z M 77.0504962924283,51.31758837602972 L 76.50095484841785,50.48212191870489 A 45.89179665619872 45.89179665619872 0 0 0 93.78456942201457,29.448491153261173 L 91.00609514949743,28.317084631731284 L 96.8875970176705,23.15395227097617 L 97.48920178537075,30.957033181967695 L 94.71072751285361,29.825626660437806 A 46.89179665619872 46.89179665619872 0 0 1 77.0504962924283,51.31758837602972"/><text text-anchor="middle" pointer-events="none" font-size="8px" fill="#000000" x="48.386177656141136" y="61.44242413120445" font-family="sans-serif">CONNECTION</text></g><g class="relationship" transform="translate(38.771513319957265 63.22570421537423) rotate(432.93797036707133)"><path class="outline" fill="#A5ABB6" stroke="none" d="M 5.987513214418485,24.277555179777966 L 6.953439040707552,24.018736134675446 A 45.890142893278686 45.890142893278686 0 0 0 21.480706202175575,47.04009593821308 L 20.831346554275893,47.800577396027535 A 46.890142893278686 46.890142893278686 0 0 1 5.987513214418485,24.277555179777966 Z M 77.04882017377435,51.31608871051165 L 76.49926102657784,50.48063389800972 A 45.890142893278686 45.890142893278686 0 0 0 93.78137882991864,29.448446598157616 L 91.00290858008712,28.317030197887032 L 96.8844288055219,23.153918748595864 L 97.48600582969398,30.957001798518395 L 94.70753557986247,29.82558539824781 A 46.890142893278686 46.890142893278686 0 0 1 77.04882017377435,51.31608871051165"/><text text-anchor="middle" pointer-events="none" font-size="8px" fill="#000000" x="48.38460114759344" y="61.44119647051649" font-family="sans-serif">CONNECTION</text></g></g><g class="layer nodes"><g class="node" transform="translate(69.96444597845904,164.85952439878935)"><circle class="outline" cx="0" cy="0" r="25" fill="#ECB5C9" stroke="#da7298" stroke-width="2px"/><text text-anchor="middle" pointer-events="none" font-family="sans-serif" dy="1.5625" font-size="25" fill="#2A2C34"/><text text-anchor="middle" pointer-events="none" x="0" y="5" font-size="10px" fill="#2A2C34" font-family="sans-serif"> MSN</text></g><g class="node" transform="translate(143.15561798510362,43.050291075444385)"><circle class="outline" cx="0" cy="0" r="25" fill="#ECB5C9" stroke="#da7298" stroke-width="2px"/><text text-anchor="middle" pointer-events="none" font-family="sans-serif" dy="1.5625" font-size="25" fill="#2A2C34"/><text text-anchor="middle" pointer-events="none" x="0" y="5" font-size="10px" fill="#2A2C34" font-family="sans-serif"> GRR</text></g><g class="node" transform="translate(38.771513319957265,63.22570421537423)"><circle class="outline" cx="0" cy="0" r="25" fill="#ECB5C9" stroke="#da7298" stroke-width="2px"/><text text-anchor="middle" pointer-events="none" font-family="sans-serif" dy="1.5625" font-size="25" fill="#2A2C34"/><text text-anchor="middle" pointer-events="none" x="0" y="5" font-size="10px" fill="#2A2C34" font-family="sans-serif"> ORD</text></g></g></svg>