<svg xmlns="http://www.w3.org/2000/svg" width="387.3055725097656" height="385.78094482421875" viewBox="-76.335205078125 -100.99081420898438 387.3055725097656 385.78094482421875"><title>Neo4j Graph Visualization</title><desc>Created using Neo4j (http://www.neo4j.com/)</desc><g class="layer relationships"><g class="relationship" transform="translate(44.54998024729714 -71.99081664862605) rotate(376.0702591144911)"><path class="outline" fill="#A5ABB6" stroke="none" d="M 24.018736134675446,-6.953439040707552 L 24.277555179777966,-5.987513214418485 A 191.91379517204138 191.91379517204138 0 0 1 62.10300586715397,-12.160898654654517 L 62.041282870584425,-13.158991972783895 A 192.91379517204138 192.91379517204138 0 0 0 24.018736134675446,-6.953439040707552 Z M 81.41802490626658,-13.382154864321905 L 81.37930541235274,-12.382904745086961 A 191.91379517204138 191.91379517204138 0 0 1 119.33690242050356,-7.082316394379895 L 118.62739007942966,-4.167424931929904 L 126.25656788973252,-5.912602842282468 L 120.28291887526876,-10.968838344313214 L 119.57340653419486,-8.053946881863224 A 192.91379517204138 192.91379517204138 0 0 0 81.41802490626658,-13.382154864321905"/><text text-anchor="middle" pointer-events="none" font-size="8px" fill="#000000" x="71.73260819647132" y="-10.01405736203779" font-family="sans-serif">trek</text></g><g class="relationship" transform="translate(189.21436812143813 -30.31692225108015) rotate(396.3286823019499)"><path class="outline" fill="#A5ABB6" stroke="none" d="M 21.40063509461097,-12.933012701892217 L 21.90063509461097,-12.06698729810778 A 67.86767815506145 67.86767815506145 0 0 1 43.02698250403705,-19.940108925850566 L 42.838269820528964,-20.922141269046648 A 68.86767815506145 68.86767815506145 0 0 0 21.40063509461097,-12.933012701892217 Z M 64.90612639560129,-21.559432025569578 L 64.7744005633025,-20.568145838282987 A 67.86767815506145 67.86767815506145 0 0 1 86.31989142507516,-13.927330936912304 L 84.97232430262484,-11.247020721565772 L 92.79854311462545,-11.229726020419319 L 88.11664758834225,-17.50107789070768 L 86.76908046589193,-14.820767675361148 A 68.86767815506145 68.86767815506145 0 0 0 64.90612639560129,-21.559432025569578"/><text text-anchor="middle" pointer-events="none" font-size="8px" fill="#000000" x="53.86092806543683" y="-18.631041302299806" font-family="sans-serif">road</text></g><g class="relationship" transform="translate(281.97035384437106 37.89063858294435) rotate(515.168078371638)"><path class="outline" fill="#A5ABB6" stroke="none" d="M 21.40063509461097,12.933012701892217 L 21.90063509461097,12.06698729810778 A 65.88209197534297 65.88209197534297 0 0 0 42.067381257319276,19.64320447676893 L 41.873484866935314,20.624226489669795 A 66.88209197534297 66.88209197534297 0 0 1 21.40063509461097,12.933012701892217 Z M 63.94003637006571,21.27177332058669 L 63.804000623888136,20.28106939116988 A 65.88209197534297 65.88209197534297 0 0 0 84.38031218536383,13.900464399914473 L 83.03524419112938,11.218899168396486 L 90.86147572461154,11.208899951953752 L 86.17373617767643,17.475884708605122 L 84.82866818344198,14.794319477087136 A 66.88209197534297 66.88209197534297 0 0 1 63.94003637006571,21.27177332058669"/><text text-anchor="middle" pointer-events="none" font-size="8px" fill="#000000" x="52.89452513591538" y="24.364950299663064" transform="rotate(180 52.89452513591538 21.364950299663064)" font-family="sans-serif">road</text></g><g class="relationship" transform="translate(179.22928658552274 85.4331564067439) rotate(460.9812018190978)"><path class="outline" fill="#A5ABB6" stroke="none" d="M 25 0.5 L 48.74486724225324 0.5 L 48.74486724225324 -0.5 L 25 -0.5 Z M 68.08080474225324 0.5 L 91.82567198450649 0.5 L 91.82567198450649 3.5 L 98.82567198450649 0 L 91.82567198450649 -3.5 L 91.82567198450649 -0.5 L 68.08080474225324 -0.5 Z"/><text text-anchor="middle" pointer-events="none" font-size="8px" fill="#000000" x="58.41283599225324" y="3" transform="rotate(180 58.41283599225324 0)" font-family="sans-serif">trek</text></g><g class="relationship" transform="translate(44.54998024729714 -71.99081664862605) rotate(376.0702591144911)"><path class="outline" fill="#A5ABB6" stroke="none" d="M 24.018736134675446,6.953439040707552 L 24.277555179777966,5.987513214418485 A 191.91379517204138 191.91379517204138 0 0 0 60.77143322002628,12.07390492963117 L 60.70277183403073,13.071544951920373 A 192.91379517204138 192.91379517204138 0 0 1 24.018736134675446,6.953439040707552 Z M 82.75819489936445,13.325558344692496 L 82.71252841655382,12.326601602712287 A 191.91379517204138 191.91379517204138 0 0 0 119.33690242050356,7.082316394379895 L 118.62739007942966,4.167424931929904 L 126.25656788973252,5.912602842282468 L 120.28291887526876,10.968838344313214 L 119.57340653419486,8.053946881863224 A 192.91379517204138 192.91379517204138 0 0 1 82.75819489936445,13.325558344692496"/><text text-anchor="middle" pointer-events="none" font-size="8px" fill="#000000" x="71.73260819647136" y="16.01405736203779" font-family="sans-serif">road</text></g><g class="relationship" transform="translate(189.21436812143813 -30.31692225108015) rotate(396.3286823019499)"><path class="outline" fill="#A5ABB6" stroke="none" d="M 25 0.5 L 30.834808912923286 0.5 L 30.834808912923286 -0.5 L 25 -0.5 Z M 77.29965266292328 0.5 L 83.13446157584657 0.5 L 83.13446157584657 3.5 L 90.13446157584657 0 L 83.13446157584657 -3.5 L 83.13446157584657 -0.5 L 77.29965266292328 -0.5 Z"/><text text-anchor="middle" pointer-events="none" font-size="8px" fill="#000000" x="54.067230787923286" y="3" font-family="sans-serif">twowheeler</text></g><g class="relationship" transform="translate(189.21436812143813 -30.31692225108015) rotate(396.3286823019499)"><path class="outline" fill="#A5ABB6" stroke="none" d="M 21.40063509461097,12.933012701892217 L 21.90063509461097,12.06698729810778 A 67.86767815506145 67.86767815506145 0 0 0 44.33359462938925,20.177962402229213 L 44.164134293403166,21.163499410427008 A 68.86767815506145 68.86767815506145 0 0 1 21.40063509461097,12.933012701892217 Z M 63.56854296823681,21.72387328462709 L 63.45623964970934,20.73019931161194 A 67.86767815506145 67.86767815506145 0 0 0 86.31989142507516,13.927330936912304 L 84.97232430262484,11.247020721565772 L 92.79854311462545,11.229726020419319 L 88.11664758834225,17.50107789070768 L 86.76908046589193,14.820767675361148 A 68.86767815506145 68.86767815506145 0 0 1 63.56854296823681,21.72387328462709"/><text text-anchor="middle" pointer-events="none" font-size="8px" fill="#000000" x="53.86092806543684" y="24.631041302299806" font-family="sans-serif">trek</text></g><g class="relationship" transform="translate(281.97035384437106 37.89063858294435) rotate(515.168078371638)"><path class="outline" fill="#A5ABB6" stroke="none" d="M 25 0.5 L 43.43595757696404 0.5 L 43.43595757696404 -0.5 L 25 -0.5 Z M 62.77189507696404 0.5 L 81.20785265392809 0.5 L 81.20785265392809 3.5 L 88.20785265392809 0 L 81.20785265392809 -3.5 L 81.20785265392809 -0.5 L 62.77189507696404 -0.5 Z"/><text text-anchor="middle" pointer-events="none" font-size="8px" fill="#000000" x="53.10392632696404" y="3" transform="rotate(180 53.10392632696404 0)" font-family="sans-serif">trek</text></g><g class="relationship" transform="translate(281.97035384437106 37.89063858294435) rotate(515.168078371638)"><path class="outline" fill="#A5ABB6" stroke="none" d="M 21.40063509461097,-12.933012701892217 L 21.90063509461097,-12.06698729810778 A 65.88209197534297 65.88209197534297 0 0 1 30.446456777347304,-16.210466709067177 L 30.07617065598271,-17.139384460175833 A 66.88209197534297 66.88209197534297 0 0 0 21.40063509461097,-12.933012701892217 Z M 75.92140042905697,-18.48472078279967 L 75.60622309646777,-17.53568798619991 A 65.88209197534297 65.88209197534297 0 0 1 84.38031218536383,-13.900464399914473 L 83.03524419112938,-11.218899168396486 L 90.86147572461154,-11.208899951953752 L 86.17373617767643,-17.475884708605122 L 84.82866818344198,-14.794319477087136 A 66.88209197534297 66.88209197534297 0 0 0 75.92140042905697,-18.48472078279967"/><text text-anchor="middle" pointer-events="none" font-size="8px" fill="#000000" x="52.894525135915394" y="-18.364950299663064" transform="rotate(180 52.894525135915394 -21.364950299663064)" font-family="sans-serif">twowheeler</text></g><g class="relationship" transform="translate(44.54998024729714 -71.99081664862605) rotate(406.4743917919245)"><path class="outline" fill="#A5ABB6" stroke="none" d="M 21.40063509461097,12.933012701892217 L 21.90063509461097,12.06698729810778 A 34.036784262603355 34.036784262603355 0 0 0 22.61147533227926,12.466117814230017 L 22.132359803390983,13.34386966411591 A 35.036784262603355 35.036784262603355 0 0 1 21.40063509461097,12.933012701892217 Z M 53.23103717164964,14.57061490972637 L 52.82255191117403,13.657849993675043 A 34.036784262603355 34.036784262603355 0 0 0 53.562623343619755,13.31595339049504 L 52.27193771320935,10.60779338719906 L 60.09677762304544,10.755713586753414 L 55.2835375175003,16.92683339488968 L 53.99285188708989,14.2186733915937 A 35.036784262603355 35.036784262603355 0 0 1 53.23103717164964,14.57061490972637"/><text text-anchor="middle" pointer-events="none" font-size="8px" fill="#000000" x="37.55771817501978" y="20.100212477566657" font-family="sans-serif">Publi…</text></g><g class="relationship" transform="translate(101.47945278333339 -12.053344056121166) rotate(411.4260768721804)"><path class="outline" fill="#A5ABB6" stroke="none" d="M 25 0.5 L 49.17915313378116 0.5 L 49.17915313378116 -0.5 L 25 -0.5 Z M 68.51509063378117 0.5 L 92.69424376756233 0.5 L 92.69424376756233 3.5 L 99.69424376756233 0 L 92.69424376756233 -3.5 L 92.69424376756233 -0.5 L 68.51509063378117 -0.5 Z"/><text text-anchor="middle" pointer-events="none" font-size="8px" fill="#000000" x="58.84712188378116" y="3" font-family="sans-serif">trek</text></g><g class="relationship" transform="translate(44.54998024729714 -71.99081664862605) rotate(406.4743917919245)"><path class="outline" fill="#A5ABB6" stroke="none" d="M 25 0.5 L 28.164420075255975 0.5 L 28.164420075255975 -0.5 L 25 -0.5 Z M 47.500357575255975 0.5 L 50.66477765051195 0.5 L 50.66477765051195 3.5 L 57.66477765051195 0 L 50.66477765051195 -3.5 L 50.66477765051195 -0.5 L 47.500357575255975 -0.5 Z"/><text text-anchor="middle" pointer-events="none" font-size="8px" fill="#000000" x="37.832388825255975" y="3" font-family="sans-serif">trek</text></g><g class="relationship" transform="translate(44.54998024729714 -71.99081664862605) rotate(406.4743917919245)"><path class="outline" fill="#A5ABB6" stroke="none" d="M 21.40063509461097,-12.933012701892217 L 21.90063509461097,-12.06698729810778 A 34.036784262603355 34.036784262603355 0 0 1 26.989384574946996,-14.467944749702543 L 26.638891926789483,-15.404510232510624 A 35.036784262603355 35.036784262603355 0 0 0 21.40063509461097,-12.933012701892217 Z M 48.57618904959392,-16.269867772584412 L 48.3005598208582,-15.308603746280212 A 34.036784262603355 34.036784262603355 0 0 1 53.562623343619755,-13.31595339049504 L 52.27193771320935,-10.60779338719906 L 60.09677762304544,-10.755713586753414 L 55.2835375175003,-16.92683339488968 L 53.99285188708989,-14.2186733915937 A 35.036784262603355 35.036784262603355 0 0 0 48.57618904959392,-16.269867772584412"/><text text-anchor="middle" pointer-events="none" font-size="8px" fill="#000000" x="37.55771817501977" y="-14.100212477566657" font-family="sans-serif">road</text></g><g class="relationship" transform="translate(101.47945278333339 -12.053344056121166) rotate(502.487459950182)"><path class="outline" fill="#A5ABB6" stroke="none" d="M 24.018736134675446,-6.953439040707552 L 24.277555179777966,-5.987513214418485 A 136.9712801924832 136.9712801924832 0 0 1 34.80347740998444,-8.36780011030055 L 34.62150602386133,-9.351103936507116 A 137.9712801924832 137.9712801924832 0 0 0 24.018736134675446,-6.953439040707552 Z M 81.02914085263009,-10.000508552574416 L 80.87475502902066,-9.012497916260997 A 136.9712801924832 136.9712801924832 0 0 1 91.46315972654229,-6.927674071288805 L 90.76809076267746,-4.009304811672765 L 98.38853282629053,-5.7922413655402165 L 92.38991834502873,-10.818833084110192 L 91.6948493811639,-7.900463824494152 A 137.9712801924832 137.9712801924832 0 0 0 81.02914085263009,-10.000508552574416"/><text text-anchor="middle" pointer-events="none" font-size="8px" fill="#000000" x="57.80481692835932" y="-8.141238732814827" transform="rotate(180 57.80481692835932 -11.141238732814827)" font-family="sans-serif">twowheeler</text></g><g class="relationship" transform="translate(4.144783189791263 62.66802674973008) rotate(423.0470171977114)"><path class="outline" fill="#A5ABB6" stroke="none" d="M 24.018736134675446,-6.953439040707552 L 24.277555179777966,-5.987513214418485 A 112.68210331054463 112.68210331054463 0 0 1 28.772559992374145,-7.093509004369508 L 28.55363197415642,-8.069250016543975 A 113.68210331054463 113.68210331054463 0 0 0 24.018736134675446,-6.953439040707552 Z M 74.8911668126623,-8.785214502076002 L 74.7024885895359,-7.803175537412244 A 112.68210331054463 112.68210331054463 0 0 1 79.22951715827284,-6.836579815048576 L 78.54295682148768,-3.9161971510893747 L 86.15817009697517,-5.721336139876388 L 80.14493094065307,-10.730423366994177 L 79.4583706038679,-7.810040703034976 A 113.68210331054463 113.68210331054463 0 0 0 74.8911668126623,-8.785214502076002"/><text text-anchor="middle" pointer-events="none" font-size="8px" fill="#000000" x="51.69325369062282" y="-7.313554898987917" font-family="sans-serif">twowheeler</text></g><g class="relationship" transform="translate(54.22751710627656 161.16064976881017) rotate(384.31898031978903)"><path class="outline" fill="#A5ABB6" stroke="none" d="M 24.018736134675446,6.953439040707552 L 24.277555179777966,5.987513214418485 A 114.26772522082034 114.26772522082034 0 0 0 29.16371301661567,7.182137542870251 L 28.947654583290404,8.158517977633778 A 115.26772522082034 115.26772522082034 0 0 1 24.018736134675446,6.953439040707552 Z M 75.29140232880755,8.869756344998692 L 75.10540764920171,7.887205593557155 A 114.26772522082034 114.26772522082034 0 0 0 80.02592355453366,6.843084471276001 L 79.33875563910124,3.9228447112562446 L 86.95434431381851,5.726399295270281 L 80.94214744177691,10.736737484635675 L 80.25497952634448,7.816497724615919 A 115.26772522082034 115.26772522082034 0 0 1 75.29140232880755,8.869756344998692"/><text text-anchor="middle" pointer-events="none" font-size="8px" fill="#000000" x="52.09108366095366" y="13.367578242474863" font-family="sans-serif">twowheeler</text></g><g class="relationship" transform="translate(101.47945278333339 -12.053344056121166) rotate(502.487459950182)"><path class="outline" fill="#A5ABB6" stroke="none" d="M 24.018736134675446,6.953439040707552 L 24.277555179777966,5.987513214418485 A 136.9712801924832 136.9712801924832 0 0 0 48.19262610608756,10.168064097873412 L 48.10840622434762,11.164511292419974 A 137.9712801924832 137.9712801924832 0 0 1 24.018736134675446,6.953439040707552 Z M 67.49677971780086,11.435822237076877 L 67.4404748942079,10.437408611949422 A 136.9712801924832 136.9712801924832 0 0 0 91.46315972654229,6.927674071288805 L 90.76809076267746,4.009304811672765 L 98.38853282629053,5.7922413655402165 L 92.38991834502873,10.818833084110192 L 91.6948493811639,7.900463824494152 A 137.9712801924832 137.9712801924832 0 0 1 67.49677971780086,11.435822237076877"/><text text-anchor="middle" pointer-events="none" font-size="8px" fill="#000000" x="57.80481692835931" y="14.141238732814827" transform="rotate(180 57.80481692835931 11.141238732814827)" font-family="sans-serif">trek</text></g><g class="relationship" transform="translate(4.144783189791263 62.66802674973008) rotate(423.0470171977114)"><path class="outline" fill="#A5ABB6" stroke="none" d="M 24.018736134675446,6.953439040707552 L 24.277555179777966,5.987513214418485 A 112.68210331054463 112.68210331054463 0 0 0 42.09491475421734,9.25429864409655 L 41.99421628949958,10.249215635208614 A 113.68210331054463 113.68210331054463 0 0 1 24.018736134675446,6.953439040707552 Z M 61.389648933219064,10.548895818947955 L 61.31973626321197,9.551342703283197 A 112.68210331054463 112.68210331054463 0 0 0 79.22951715827284,6.836579815048576 L 78.54295682148768,3.9161971510893747 L 86.15817009697517,5.721336139876388 L 80.14493094065307,10.730423366994177 L 79.4583706038679,7.810040703034976 A 113.68210331054463 113.68210331054463 0 0 1 61.389648933219064,10.548895818947955"/><text text-anchor="middle" pointer-events="none" font-size="8px" fill="#000000" x="51.69325369062281" y="13.313554898987917" font-family="sans-serif">trek</text></g><g class="relationship" transform="translate(54.22751710627656 161.16064976881017) rotate(384.31898031978903)"><path class="outline" fill="#A5ABB6" stroke="none" d="M 24.018736134675446,-6.953439040707552 L 24.277555179777966,-5.987513214418485 A 114.26772522082034 114.26772522082034 0 0 1 42.491637729519624,-9.314950412919075 L 42.39221699670995,-10.309995898255082 A 115.26772522082034 115.26772522082034 0 0 0 24.018736134675446,-6.953439040707552 Z M 61.787149652228855,-10.607650294114734 L 61.71831051334969,-9.610022521366616 A 114.26772522082034 114.26772522082034 0 0 1 80.02592355453366,-6.843084471276001 L 79.33875563910124,-3.9228447112562446 L 86.95434431381851,-5.726399295270281 L 80.94214744177691,-10.736737484635675 L 80.25497952634448,-7.816497724615919 A 115.26772522082034 115.26772522082034 0 0 0 61.787149652228855,-10.607650294114734"/><text text-anchor="middle" pointer-events="none" font-size="8px" fill="#000000" x="52.091083660953615" y="-7.367578242474863" font-family="sans-serif">trek</text></g><g class="relationship" transform="translate(101.47945278333339 -12.053344056121166) rotate(348.24080503257824)"><path class="outline" fill="#A5ABB6" stroke="none" d="M 25 0.5 L 31.639881170152904 0.5 L 31.639881170152904 -0.5 L 25 -0.5 Z M 50.975818670152904 0.5 L 57.61569984030581 0.5 L 57.61569984030581 3.5 L 64.61569984030581 0 L 57.61569984030581 -3.5 L 57.61569984030581 -0.5 L 50.975818670152904 -0.5 Z"/><text text-anchor="middle" pointer-events="none" font-size="8px" fill="#000000" x="41.307849920152904" y="3" font-family="sans-serif">trek</text></g><g class="relationship" transform="translate(4.144783189791263 62.66802674973008) rotate(475.4861837041708)"><path class="outline" fill="#A5ABB6" stroke="none" d="M 24.018736134675446,-6.953439040707552 L 24.277555179777966,-5.987513214418485 A 130.8812531496514 130.8812531496514 0 0 1 33.28439358986454,-8.06300763394347 L 33.09439141649374,-9.044791303656098 A 131.8812531496514 131.8812531496514 0 0 0 24.018736134675446,-6.953439040707552 Z M 79.48860393567685,-9.709771123375248 L 79.32681833473421,-8.722945191750199 A 130.8812531496514 130.8812531496514 0 0 1 88.38944167612874,-6.9064448744088445 L 87.69635558151985,-3.9876040658925955 L 95.31558457843481,-5.775717455074128 L 89.3135564689406,-10.798232619097176 L 88.62047037433172,-7.879391810580927 A 131.8812531496514 131.8812531496514 0 0 0 79.48860393567685,-9.709771123375248"/><text text-anchor="middle" pointer-events="none" font-size="8px" fill="#000000" x="56.269189277414704" y="-7.933690232549367" transform="rotate(180 56.269189277414704 -10.933690232549367)" font-family="sans-serif">twowheeler</text></g><g class="relationship" transform="translate(-47.335204089787034 170.66507745184103) rotate(354.6537252615062)"><path class="outline" fill="#A5ABB6" stroke="none" d="M 21.40063509461097,12.933012701892217 L 21.90063509461097,12.06698729810778 A 54.293686070336264 54.293686070336264 0 0 0 36.498762026980934,17.870888715326238 L 36.267635407827804,18.843812394716792 A 55.293686070336264 55.293686070336264 0 0 1 21.40063509461097,12.933012701892217 Z M 58.31959286360569,19.55800518499847 L 58.151904373421985,18.572165152204157 A 54.293686070336264 54.293686070336264 0 0 0 73.09498517944206,13.725009530694816 L 71.76623912496476,11.035319228315938 L 79.59238689407233,11.072883787310909 L 74.86664658541181,17.311263267199987 L 73.53790053093451,14.621572964821109 A 55.293686070336264 55.293686070336264 0 0 1 58.31959286360569,19.55800518499847"/><text text-anchor="middle" pointer-events="none" font-size="8px" fill="#000000" x="47.2738148076909" y="22.812247836149062" font-family="sans-serif">road</text></g><g class="relationship" transform="translate(4.144783189791263 62.66802674973008) rotate(475.4861837041708)"><path class="outline" fill="#A5ABB6" stroke="none" d="M 24.018736134675446,6.953439040707552 L 24.277555179777966,5.987513214418485 A 130.8812531496514 130.8812531496514 0 0 0 46.6599345372898,9.941665279546413 L 46.572128366979356,10.93780285862644 A 131.8812531496514 131.8812531496514 0 0 1 24.018736134675446,6.953439040707552 Z M 65.96214876793283,11.215724857307748 L 65.90292857977403,10.217479912760353 A 130.8812531496514 130.8812531496514 0 0 0 88.38944167612874,6.9064448744088445 L 87.69635558151985,3.9876040658925955 L 95.31558457843481,5.775717455074128 L 89.3135564689406,10.798232619097176 L 88.62047037433172,7.879391810580927 A 131.8812531496514 131.8812531496514 0 0 1 65.96214876793283,11.215724857307748"/><text text-anchor="middle" pointer-events="none" font-size="8px" fill="#000000" x="56.269189277414746" y="13.933690232549367" transform="rotate(180 56.269189277414746 10.933690232549367)" font-family="sans-serif">trek</text></g><g class="relationship" transform="translate(-47.335204089787034 170.66507745184103) rotate(354.6537252615062)"><path class="outline" fill="#A5ABB6" stroke="none" d="M 25 0.5 L 37.83526762361483 0.5 L 37.83526762361483 -0.5 L 25 -0.5 Z M 57.17120512361483 0.5 L 70.00647274722967 0.5 L 70.00647274722967 3.5 L 77.00647274722967 0 L 70.00647274722967 -3.5 L 70.00647274722967 -0.5 L 57.17120512361483 -0.5 Z"/><text text-anchor="middle" pointer-events="none" font-size="8px" fill="#000000" x="47.50323637361483" y="3" font-family="sans-serif">trek</text></g><g class="relationship" transform="translate(-47.335204089787034 170.66507745184103) rotate(354.6537252615062)"><path class="outline" fill="#A5ABB6" stroke="none" d="M 21.40063509461097,-12.933012701892217 L 21.90063509461097,-12.06698729810778 A 54.293686070336264 54.293686070336264 0 0 1 25.120478466592317,-13.784356586494397 L 24.679782662071148,-14.68201309534254 A 55.293686070336264 55.293686070336264 0 0 0 21.40063509461097,-12.933012701892217 Z M 70.15245437282753,-16.1547283568242 L 69.77076565313897,-15.230437427915724 A 54.293686070336264 54.293686070336264 0 0 1 73.09498517944206,-13.725009530694816 L 71.76623912496476,-11.035319228315938 L 79.59238689407233,-11.072883787310909 L 74.86664658541181,-17.311263267199987 L 73.53790053093451,-14.621572964821109 A 55.293686070336264 55.293686070336264 0 0 0 70.15245437282753,-16.1547283568242"/><text text-anchor="middle" pointer-events="none" font-size="8px" fill="#000000" x="47.2738148076909" y="-16.812247836149062" font-family="sans-serif">twowheeler</text></g><g class="relationship" transform="translate(-47.335204089787034 170.66507745184103) rotate(402.9329127803354)"><path class="outline" fill="#A5ABB6" stroke="none" d="M 25 0.5 L 49.31908599225859 0.5 L 49.31908599225859 -0.5 L 25 -0.5 Z M 68.6550234922586 0.5 L 92.97410948451719 0.5 L 92.97410948451719 3.5 L 99.97410948451719 0 L 92.97410948451719 -3.5 L 92.97410948451719 -0.5 L 68.6550234922586 -0.5 Z"/><text text-anchor="middle" pointer-events="none" font-size="8px" fill="#000000" x="58.98705474225859" y="3" font-family="sans-serif">trek</text></g><g class="relationship" transform="translate(44.164808513317034 255.79013683554945) rotate(336.35886010268734)"><path class="outline" fill="#A5ABB6" stroke="none" d="M 25 0.5 L 47.67710558065924 0.5 L 47.67710558065924 -0.5 L 25 -0.5 Z M 67.01304308065923 0.5 L 89.69014866131847 0.5 L 89.69014866131847 3.5 L 96.69014866131847 0 L 89.69014866131847 -3.5 L 89.69014866131847 -0.5 L 67.01304308065923 -0.5 Z"/><text text-anchor="middle" pointer-events="none" font-size="8px" fill="#000000" x="57.34507433065924" y="3" font-family="sans-serif">trek</text></g></g><g class="layer nodes"><g class="node" transform="translate(44.54998024729714,-71.99081664862605)"><circle class="outline" cx="0" cy="0" r="25" fill="#F16667" stroke="#eb2728" stroke-width="2px"/><text text-anchor="middle" pointer-events="none" font-family="sans-serif" dy="1.5625" font-size="25" fill="#FFFFFF"/><text text-anchor="middle" pointer-events="none" x="0" y="5" font-size="10px" fill="#FFFFFF" font-family="sans-serif"> Darjeeling</text></g><g class="node" transform="translate(155.6421153528357,206.99154729628512)"><circle class="outline" cx="0" cy="0" r="25" fill="#8DCC93" stroke="#5db665" stroke-width="2px"/><text text-anchor="middle" pointer-events="none" font-family="sans-serif" dy="1.5625" font-size="25" fill="#2A2C34"/><text text-anchor="middle" pointer-events="none" x="0" y="5" font-size="10px" fill="#2A2C34" font-family="sans-serif"> Sandak…</text></g><g class="node" transform="translate(189.21436812143813,-30.31692225108015)"><circle class="outline" cx="0" cy="0" r="25" fill="#D9C8AE" stroke="#c0a378" stroke-width="2px"/><text text-anchor="middle" pointer-events="none" font-family="sans-serif" dy="1.5625" font-size="25" fill="#2A2C34"/><text text-anchor="middle" pointer-events="none" x="0" y="5" font-size="10px" fill="#2A2C34" font-family="sans-serif"> Tumbling</text></g><g class="node" transform="translate(281.97035384437106,37.89063858294435)"><circle class="outline" cx="0" cy="0" r="25" fill="#D9C8AE" stroke="#c0a378" stroke-width="2px"/><text text-anchor="middle" pointer-events="none" font-family="sans-serif" dy="1.5625" font-size="25" fill="#2A2C34"/><text text-anchor="middle" pointer-events="none" x="0" y="5" font-size="10px" fill="#2A2C34" font-family="sans-serif"> Gairibus</text></g><g class="node" transform="translate(179.22928658552274,85.4331564067439)"><circle class="outline" cx="0" cy="0" r="25" fill="#D9C8AE" stroke="#c0a378" stroke-width="2px"/><text text-anchor="middle" pointer-events="none" font-family="sans-serif" dy="1.5625" font-size="25" fill="#2A2C34"/><text text-anchor="middle" pointer-events="none" x="0" y="5" font-size="10px" fill="#2A2C34" font-family="sans-serif"> BhikeBh…</text></g><g class="node" transform="translate(101.47945278333339,-12.053344056121166)"><circle class="outline" cx="0" cy="0" r="25" fill="#F16667" stroke="#eb2728" stroke-width="2px"/><text text-anchor="middle" pointer-events="none" font-family="sans-serif" dy="1.5625" font-size="25" fill="#FFFFFF"/><text text-anchor="middle" pointer-events="none" x="0" y="5" font-size="10px" fill="#FFFFFF" font-family="sans-serif"> Rimbik</text></g><g class="node" transform="translate(4.144783189791263,62.66802674973008)"><circle class="outline" cx="0" cy="0" r="25" fill="#D9C8AE" stroke="#c0a378" stroke-width="2px"/><text text-anchor="middle" pointer-events="none" font-family="sans-serif" dy="1.5625" font-size="25" fill="#2A2C34"/><text text-anchor="middle" pointer-events="none" x="0" y="5" font-size="10px" fill="#2A2C34" font-family="sans-serif"> Sirikhola</text></g><g class="node" transform="translate(54.22751710627656,161.16064976881017)"><circle class="outline" cx="0" cy="0" r="25" fill="#D9C8AE" stroke="#c0a378" stroke-width="2px"/><text text-anchor="middle" pointer-events="none" font-family="sans-serif" dy="1.5625" font-size="25" fill="#2A2C34"/><text text-anchor="middle" pointer-events="none" x="0" y="5" font-size="10px" fill="#2A2C34" font-family="sans-serif"> Gurdum</text></g><g class="node" transform="translate(-47.335204089787034,170.66507745184103)"><circle class="outline" cx="0" cy="0" r="25" fill="#D9C8AE" stroke="#c0a378" stroke-width="2px"/><text text-anchor="middle" pointer-events="none" font-family="sans-serif" dy="1.5625" font-size="25" fill="#2A2C34"/><text text-anchor="middle" pointer-events="none" x="0" y="5" font-size="10px" fill="#2A2C34" font-family="sans-serif"> Rammam</text></g><g class="node" transform="translate(44.164808513317034,255.79013683554945)"><circle class="outline" cx="0" cy="0" r="25" fill="#8DCC93" stroke="#5db665" stroke-width="2px"/><text text-anchor="middle" pointer-events="none" font-family="sans-serif" dy="1.5625" font-size="25" fill="#2A2C34"/><text text-anchor="middle" pointer-events="none" x="0" y="5" font-size="10px" fill="#2A2C34" font-family="sans-serif"> Sabargr…</text></g></g></svg>