<svg xmlns="http://www.w3.org/2000/svg" width="240.51132202148438" height="253.743896484375" viewBox="-7.934999465942383 -9.904809951782227 240.51132202148438 253.743896484375"><title>Neo4j Graph Visualization</title><desc>Created using Neo4j (http://www.neo4j.com/)</desc><g class="layer relationships"><g class="relationship" transform="translate(190.20514553659342 214.83907421369642) rotate(231.77989255481367)"><path class="outline" fill="#A5ABB6" stroke="none" d="M 25 0.5 L 27.624210915317036 0.5 L 27.624210915317036 -0.5 L 25 -0.5 Z M 73.18671091531704 0.5 L 75.81092183063407 0.5 L 75.81092183063407 3.5 L 82.81092183063407 0 L 75.81092183063407 -3.5 L 75.81092183063407 -0.5 L 73.18671091531704 -0.5 Z"/><text text-anchor="middle" pointer-events="none" font-size="8px" fill="#000000" x="50.405460915317036" y="3" transform="rotate(180 50.405460915317036 0)" font-family="sans-serif">ACTED_IN</text></g><g class="relationship" transform="translate(203.57631082939298 50.414146160131416) rotate(495.1246688069896)"><path class="outline" fill="#A5ABB6" stroke="none" d="M 25 0.5 L 35.109991101321285 0.5 L 35.109991101321285 -0.5 L 25 -0.5 Z M 70.88342860132128 0.5 L 80.99341970264257 0.5 L 80.99341970264257 3.5 L 87.99341970264257 0 L 80.99341970264257 -3.5 L 80.99341970264257 -0.5 L 70.88342860132128 -0.5 Z"/><text text-anchor="middle" pointer-events="none" font-size="8px" fill="#000000" x="52.996709851321285" y="3" transform="rotate(180 52.996709851321285 0)" font-family="sans-serif">WROTE</text></g><g class="relationship" transform="translate(101.03409880701604 19.095190328195994) rotate(438.5604017617929)"><path class="outline" fill="#A5ABB6" stroke="none" d="M 25 0.5 L 29.701683039994357 0.5 L 29.701683039994357 -0.5 L 25 -0.5 Z M 76.59230803999435 0.5 L 81.29399107998871 0.5 L 81.29399107998871 3.5 L 88.29399107998871 0 L 81.29399107998871 -3.5 L 81.29399107998871 -0.5 L 76.59230803999435 -0.5 Z"/><text text-anchor="middle" pointer-events="none" font-size="8px" fill="#000000" x="53.14699553999436" y="3" font-family="sans-serif">DIRECTED</text></g><g class="relationship" transform="translate(21.064999639723677 81.79388031865543) rotate(385.2642551426259)"><path class="outline" fill="#A5ABB6" stroke="none" d="M 25 0.5 L 30.35575580533235 0.5 L 30.35575580533235 -0.5 L 25 -0.5 Z M 75.91825580533235 0.5 L 81.2740116106647 0.5 L 81.2740116106647 3.5 L 88.2740116106647 0 L 81.2740116106647 -3.5 L 81.2740116106647 -0.5 L 75.91825580533235 -0.5 Z"/><text text-anchor="middle" pointer-events="none" font-size="8px" fill="#000000" x="53.13700580533235" y="3" font-family="sans-serif">ACTED_IN</text></g><g class="relationship" transform="translate(27.055725737822314 188.89245634188705) rotate(328.6513092828597)"><path class="outline" fill="#A5ABB6" stroke="none" d="M 25 0.5 L 30.18630774241349 0.5 L 30.18630774241349 -0.5 L 25 -0.5 Z M 75.74880774241349 0.5 L 80.93511548482698 0.5 L 80.93511548482698 3.5 L 87.93511548482698 0 L 80.93511548482698 -3.5 L 80.93511548482698 -0.5 L 75.74880774241349 -0.5 Z"/><text text-anchor="middle" pointer-events="none" font-size="8px" fill="#000000" x="52.96755774241349" y="3" font-family="sans-serif">ACTED_IN</text></g></g><g class="layer nodes"><g class="node" transform="translate(123.50423735123942,130.13852100877298)"><circle class="outline" cx="0" cy="0" r="25" fill="#F79767" stroke="#f36924" stroke-width="2px"/><text text-anchor="middle" pointer-events="none" font-family="sans-serif" dy="1.5625" font-size="25" fill="#FFFFFF"/><text text-anchor="middle" pointer-events="none" font-family="sans-serif" dy="1.5625" font-size="25" fill="#FFFFFF"/><text text-anchor="middle" pointer-events="none" font-family="sans-serif" dy="1.5625" font-size="25" fill="#FFFFFF"/><text text-anchor="middle" pointer-events="none" x="0" y="-5" font-size="10px" fill="#FFFFFF" font-family="sans-serif"> Captain</text><text text-anchor="middle" pointer-events="none" x="0" y="5" font-size="10px" fill="#FFFFFF" font-family="sans-serif"> America:</text><text text-anchor="middle" pointer-events="none" x="0" y="15" font-size="10px" fill="#FFFFFF" font-family="sans-serif"> The Fi…</text></g><g class="node" transform="translate(190.20514553659342,214.83907421369642)"><circle class="outline" cx="0" cy="0" r="25" fill="#57C7E3" stroke="#23b3d7" stroke-width="2px"/><text text-anchor="middle" pointer-events="none" font-family="sans-serif" dy="1.5625" font-size="25" fill="#2A2C34"/><text text-anchor="middle" pointer-events="none" font-family="sans-serif" dy="1.5625" font-size="25" fill="#2A2C34"/><text text-anchor="middle" pointer-events="none" x="0" y="0" font-size="10px" fill="#2A2C34" font-family="sans-serif"> Tommy</text><text text-anchor="middle" pointer-events="none" x="0" y="10" font-size="10px" fill="#2A2C34" font-family="sans-serif"> Lee Jon…</text></g><g class="node" transform="translate(203.57631082939298,50.414146160131416)"><circle class="outline" cx="0" cy="0" r="25" fill="#57C7E3" stroke="#23b3d7" stroke-width="2px"/><text text-anchor="middle" pointer-events="none" font-family="sans-serif" dy="1.5625" font-size="25" fill="#2A2C34"/><text text-anchor="middle" pointer-events="none" x="0" y="5" font-size="10px" fill="#2A2C34" font-family="sans-serif"> Christop…</text></g><g class="node" transform="translate(101.03409880701604,19.095190328195994)"><circle class="outline" cx="0" cy="0" r="25" fill="#57C7E3" stroke="#23b3d7" stroke-width="2px"/><text text-anchor="middle" pointer-events="none" font-family="sans-serif" dy="1.5625" font-size="25" fill="#2A2C34"/><text text-anchor="middle" pointer-events="none" font-family="sans-serif" dy="1.5625" font-size="25" fill="#2A2C34"/><text text-anchor="middle" pointer-events="none" x="0" y="0" font-size="10px" fill="#2A2C34" font-family="sans-serif"> Joe</text><text text-anchor="middle" pointer-events="none" x="0" y="10" font-size="10px" fill="#2A2C34" font-family="sans-serif"> Johnston</text></g><g class="node" transform="translate(21.064999639723677,81.79388031865543)"><circle class="outline" cx="0" cy="0" r="25" fill="#57C7E3" stroke="#23b3d7" stroke-width="2px"/><text text-anchor="middle" pointer-events="none" font-family="sans-serif" dy="1.5625" font-size="25" fill="#2A2C34"/><text text-anchor="middle" pointer-events="none" font-family="sans-serif" dy="1.5625" font-size="25" fill="#2A2C34"/><text text-anchor="middle" pointer-events="none" x="0" y="0" font-size="10px" fill="#2A2C34" font-family="sans-serif"> Hugo</text><text text-anchor="middle" pointer-events="none" x="0" y="10" font-size="10px" fill="#2A2C34" font-family="sans-serif"> Weaving</text></g><g class="node" transform="translate(27.055725737822314,188.89245634188705)"><circle class="outline" cx="0" cy="0" r="25" fill="#57C7E3" stroke="#23b3d7" stroke-width="2px"/><text text-anchor="middle" pointer-events="none" font-family="sans-serif" dy="1.5625" font-size="25" fill="#2A2C34"/><text text-anchor="middle" pointer-events="none" font-family="sans-serif" dy="1.5625" font-size="25" fill="#2A2C34"/><text text-anchor="middle" pointer-events="none" x="0" y="0" font-size="10px" fill="#2A2C34" font-family="sans-serif"> Chris</text><text text-anchor="middle" pointer-events="none" x="0" y="10" font-size="10px" fill="#2A2C34" font-family="sans-serif"> Evans</text></g></g></svg>